<svg id="visual" viewBox="0 0 900 600" width="900" height="600" xmlns="http://www.w3.org/2000/svg" xmlns:xlink="http://www.w3.org/1999/xlink" version="1.1"><rect x="0" y="0" width="900" height="600" fill="#FFFFFF"></rect><defs><linearGradient id="grad1_0" x1="33.3%" y1="100%" x2="100%" y2="0%"><stop offset="20%" stop-color="#ffffff" stop-opacity="1"></stop><stop offset="80%" stop-color="#ffffff" stop-opacity="1"></stop></linearGradient></defs><defs><linearGradient id="grad2_0" x1="0%" y1="100%" x2="66.7%" y2="0%"><stop offset="20%" stop-color="#ffffff" stop-opacity="1"></stop><stop offset="80%" stop-color="#ffffff" stop-opacity="1"></stop></linearGradient></defs><g transform="translate(900, 600)"><path d="M-405.6 0C-407.5 -32 -409.4 -64 -395.5 -90.3C-381.5 -116.5 -351.8 -137 -334.3 -161C-316.7 -184.9 -311.2 -212.3 -298.7 -238.2C-286.1 -264.1 -266.4 -288.5 -241.9 -303.4C-217.5 -318.2 -188.3 -323.6 -162.7 -337.9C-137.1 -352.1 -115.1 -375.2 -88.6 -388C-62 -400.8 -31 -403.2 0 -405.6L0 0Z" fill="#E8BC0A"></path></g><g transform="translate(0, 0)"><path d="M405.6 0C377.5 23.7 349.4 47.4 349 79.7C348.7 111.9 376 152.7 365.5 176C354.9 199.3 306.4 205.1 279.1 222.6C251.9 240 245.9 269.1 227.6 285.4C209.3 301.6 178.6 305 154 319.8C129.4 334.7 110.8 361.1 86.1 377.3C61.4 393.5 30.7 399.6 0 405.6L0 0Z" fill="#E8BC0A"></path></g></svg>